<svg width="48" height="48" viewBox="0 0 48 48" fill="none" xmlns="http://www.w3.org/2000/svg">
<rect width="48" height="48" rx="9" fill="#832FA5"/>
<path d="M36 24.0731C36 17.4046 30.6281 12 24 12C17.3719 12 12 17.4046 12 24.0731C12 30.1002 16.3875 35.0945 22.125 36V27.563H19.0781V24.0731H22.125V21.4132C22.125 18.3879 23.9156 16.7161 26.6578 16.7161C27.9703 16.7161 29.3438 16.9519 29.3438 16.9519V19.923H27.8297C26.3391 19.923 25.875 20.8544 25.875 21.8094V24.0731H29.2031L28.6711 27.563H25.875V36C31.6125 35.0945 36 30.1002 36 24.0731Z" fill="white"/>
</svg>
