<svg width="42" height="37" viewBox="0 0 42 37" fill="none" xmlns="http://www.w3.org/2000/svg">
<path d="M34.088 18.776C36.7333 19.3733 38.6533 20.44 39.848 21.976C41.0427 23.4267 41.64 25.176 41.64 27.224C41.64 29.4427 40.872 31.4907 39.336 33.368C37.8853 35.2453 35.496 36.184 32.168 36.184C29.0107 36.184 26.536 35.1173 24.744 32.984C23.0373 30.7653 22.184 27.8213 22.184 24.152C22.184 19.3733 23.336 15.0213 25.64 11.096C27.944 7.17066 31.4427 3.97066 36.136 1.49599C36.9893 1.06933 37.7573 0.941327 38.44 1.11199C39.208 1.28266 39.7627 1.624 40.104 2.13599C40.4453 2.64799 40.5307 3.24533 40.36 3.92799C40.1893 4.52533 39.72 5.08 38.952 5.592C37.7573 6.36 36.3493 7.64 34.728 9.432C33.192 11.224 32.3813 13.2293 32.296 15.448C32.2107 16.3867 32.3387 17.1973 32.68 17.88C33.0213 18.4773 33.4907 18.776 34.088 18.776ZM12.328 18.776C14.9733 19.3733 16.8933 20.44 18.088 21.976C19.2827 23.4267 19.88 25.176 19.88 27.224C19.88 29.4427 19.112 31.4907 17.576 33.368C16.1253 35.2453 13.736 36.184 10.408 36.184C7.25067 36.184 4.776 35.1173 2.984 32.984C1.27733 30.7653 0.424 27.8213 0.424 24.152C0.424 19.3733 1.576 15.0213 3.88 11.096C6.184 7.17066 9.68267 3.97066 14.376 1.49599C15.2293 1.06933 15.9973 0.941327 16.68 1.11199C17.448 1.28266 18.0027 1.624 18.344 2.13599C18.6853 2.64799 18.7707 3.24533 18.6 3.92799C18.4293 4.52533 17.96 5.08 17.192 5.592C15.9973 6.36 14.5893 7.64 12.968 9.432C11.432 11.224 10.6213 13.2293 10.536 15.448C10.4507 16.3867 10.5787 17.1973 10.92 17.88C11.2613 18.4773 11.7307 18.776 12.328 18.776Z" fill="#832FA5"/>
</svg>
